<svg xmlns="http://www.w3.org/2000/svg" viewBox="0 0 244.87 54.73"><title>Risorsa 5</title><g id="Livello_2" data-name="Livello 2"><g id="Livello_1-2" data-name="Livello 1"><path d="M23.91,2.74A23.69,23.69,0,0,1,38,7L36.44,9.58a3,3,0,0,1-2.52,1.8,3.47,3.47,0,0,1-2.6-1.59A14.45,14.45,0,0,0,19.66,4.25c-21.82.36-15,47,8.06,47,5.4,0,9.94-2.59,13.4-6.34l.43.43c-4.75,6.41-11.67,9.37-19.23,9.37C-6.41,54.73-9,2.74,23.91,2.74Z"/><path d="M43,45.65c0-12,17.93-15.48,17.29-21.74-.22-2-2.31-3.6-5.55-4.18-3.67,2-6.33,5.54-8.5,5.62-1.51.14-2.8-1.66-2.88-3.1,0-4.18,12-4.9,14.69-4.9,12.75,0,15.7,10.52,15.7,17.21v14c0,4,1.3,5,3,5V54H69.77a2.38,2.38,0,0,1-2.52-2.51V40c-1.66,7.56-5.69,14.69-14.54,14.69C47.59,54.73,43,51.56,43,45.65ZM49,43c0,5.11,2.45,8.35,6.7,8.35,8.57,0,10.8-9.29,11.52-16.7,0-10.59-.72-16.28-7.2-16.35a10.51,10.51,0,0,0-4.32.94c3.6.72,5.54,2.59,5.62,5.11C61.49,29.74,49,33.48,49,43Z"/><path d="M81,54v-.35c1.66,0,3-1,3-5V24.41c0-1.51-.93-2.23-2.37-1.73L81,22.9v-.36L90.43,18v7.85c2.81-5.18,7.49-8.57,13.54-8.57,11.23,0,11.59,10,11.59,19.8V48.6c0,4,1.3,5,3,5V54H106.13v-.35c1.66,0,3-1,3-5V42.7c0-10,.72-23.83-7.77-23.83-4.33,0-8.72,3.6-10.88,8.71v21c0,4,1.3,5,3,5V54Z"/><path d="M140.11,17.35a20.66,20.66,0,0,1,8,1.8V6.41a1.64,1.64,0,0,0-2.38-1.73l-.58.22V4.54L154.59,0V48.6c0,4,1.29,5,2.95,5V54h-4.9a4.31,4.31,0,0,1-4.53-4,15.62,15.62,0,0,1-10.81,4.69C116.78,55.08,116.35,17.21,140.11,17.35Zm.94,35a11.28,11.28,0,0,0,7.06-3.1V23.19a12.84,12.84,0,0,0-10.23-4.76C120.46,18.94,126,53,141.05,52.35Z"/><path d="M161.85,54v-.35c1.66,0,3-1,3-5V6.41c0-1.51-.94-2.23-2.38-1.73l-.58.22V4.54L171.29,0V48.6c0,4,1.29,5,3,5V54Z"/><path d="M194.47,17.35c5.91,0,12.24,4.54,13,11H196.56c16.49,4.25,15,26.28-2.09,26.28-8.35,0-16.63-6.91-16.63-19.37S186.91,17.35,194.47,17.35ZM182.66,30.82c0,12,8,21.17,16.13,21.24,11.88.15,13-22.54-6.48-23.69h-3.24c-.36,0-.65.07-1,.07l.08-.07h-5.33C182.73,29.16,182.66,30,182.66,30.82Zm.29-3.17h18.51C199.8,22,196.7,18.43,192,18.51,186.69,18.58,183.74,22.75,183,27.65Z"/><path d="M210.81,45.44a3,3,0,0,1,2.45-1.8,3.27,3.27,0,0,1,2.45,1.72c2.66,3.89,6.91,8.5,12.53,8.5,3.89,0,9.65-3.17,9.65-9.14.07-15-27-12.82-27-28.45,0-10.15,9.5-13.25,17.35-13.39,5.76-.14,11.95,1.15,16,4.32l-1.51,2.59c-.72,1.16-1.51,1.8-2.37,1.8a3.33,3.33,0,0,1-2.45-1.65c-2.31-3-5.76-6.19-11.16-6.19A8.91,8.91,0,0,0,218,12.89C218,27.43,244.8,25.2,244.87,41c.07,9.94-10.08,13.69-19.08,13.69-5.76,0-13.39-1.88-16.78-6.34Z"/></g></g></svg>