<svg xmlns="http://www.w3.org/2000/svg" viewBox="0 0 164.01 60.68"><title>Risorsa 1</title><g id="Livello_2" data-name="Livello 2"><g id="_Livello_" data-name="&lt;Livello&gt;"><path d="M0,57.09v-.41c1.71,0,3-1.14,3-5.71V5.46L.08.41V0H8.89L30.75,37.6,52.44,0h7.42V.41c-1.71,0-3.1,1.14-3.1,5.71V51c0,4.57,1.39,5.71,3.1,5.71v.41H46.24v-.41c1.72,0,3.1-1.14,3.1-5.71V7.1L26.67,46.33,3.83,6.85V51c0,4.57,1.31,5.71,3,5.71v.41Z"/><path d="M77.56,16.31v3c0,11.34-.82,27,8.81,27,4.89,0,9.86-4.08,12.31-9.87V23.57c0-1.71-1.06-2.53-2.69-2l-.65.25v-.41L106,16.31V42c0,4.57,1.47,5.71,3.35,5.71v.41h-7.83a2.7,2.7,0,0,1-2.86-2.86V38.41c-3.18,5.88-8.48,9.71-15.33,9.71-12.73,0-13.13-11.34-13.13-22.43V23.57c0-1.71-1.06-2.53-2.69-2l-.66.25v-.41Zm11.5,33.93a8.91,8.91,0,0,0,5.22,5.22,8.91,8.91,0,0,0-5.22,5.22,8.93,8.93,0,0,0-5.22-5.22A8.93,8.93,0,0,0,89.06,50.24Z"/><path d="M116.38,57.09v-.41c1.87,0,3.34-1.14,3.34-5.71V4.57L116.54.41V0h9.22l34.09,44.53V6.12c0-4.57-1.47-5.71-3.35-5.71V0H164V.41c-1.88,0-3.35,1.14-3.35,5.71v51h-.81L120.54,5.63V51c0,4.57,1.46,5.71,3.34,5.71v.41Z"/></g></g></svg>